<?xml version="1.0" encoding="UTF-8"?>
<svg version="1.1" xmlns="http://www.w3.org/2000/svg" width="512" height="512">
<path d="M0 0 C1.44208426 -0.0054926 2.88416048 -0.01360651 4.32621711 -0.02408731 C8.25733748 -0.04511347 12.18753852 -0.0291018 16.11861789 -0.00658631 C20.3702293 0.01118876 24.62172625 -0.00581533 28.87333679 -0.01831055 C37.18943618 -0.03723757 45.50518721 -0.02413048 53.82126064 0.00021534 C63.51368433 0.02752809 73.2060261 0.02417325 82.8984785 0.01994868 C100.19621985 0.01357614 117.49379622 0.03686314 134.79148865 0.07608032 C151.56172204 0.11409145 168.33176213 0.12825299 185.10203552 0.11709595 C203.38210291 0.10497036 221.66208541 0.10535235 239.94214576 0.12806761 C241.89265342 0.13048209 243.84316108 0.13289406 245.79366875 0.1353035 C246.75325554 0.13651057 247.71284234 0.13771765 248.70150753 0.13896131 C255.45166547 0.14670768 262.20179174 0.14593703 268.95195198 0.14213181 C277.18153244 0.13788017 285.41094395 0.14839445 293.64047689 0.17735891 C297.83632509 0.19180963 302.0319277 0.20003307 306.22779655 0.19087219 C310.07388298 0.18267946 313.91946383 0.19316148 317.76547384 0.21812434 C319.80470663 0.22669186 321.843993 0.21584311 323.88321024 0.20414579 C336.01845405 0.31920795 345.51405807 3.26646942 354.38157654 11.7484436 C362.7074338 20.61836678 366.474214 30.50816918 366.54270935 42.60244751 C366.54767426 43.27135513 366.55263916 43.94026276 366.55775452 44.62944031 C366.5722848 46.8279729 366.57915996 49.02643353 366.58470154 51.2250061 C366.59045705 52.75767009 366.59621473 54.29033407 366.60197449 55.82299805 C366.61245599 59.02894423 366.61831843 62.23486553 366.62181091 65.44082642 C366.6273139 69.5512487 366.65139186 73.66134279 366.67978287 77.77166176 C366.69838361 80.93376643 366.70361329 84.09579125 366.70514679 87.25794601 C366.70817566 88.77383611 366.71621213 90.28972472 366.72933197 91.80556107 C366.74635236 93.92170799 366.74452359 96.03704152 366.73802185 98.15322876 C366.74166748 99.35726349 366.74531311 100.56129822 366.74906921 101.80181885 C366.38157654 104.7484436 366.38157654 104.7484436 365.04679871 106.59814453 C361.53545224 109.02370591 358.29167689 108.87007445 354.16600037 108.86196899 C352.88489883 108.86189346 351.6037973 108.86181793 350.28387451 108.86174011 C348.88545188 108.85663347 347.48702964 108.85141748 346.08860779 108.84609985 C344.65800018 108.84423449 343.22739193 108.84281115 341.79678345 108.84181213 C338.03370903 108.83799627 334.27067329 108.82817392 330.50761414 108.81710815 C326.6667788 108.80687403 322.82593721 108.80231022 318.98509216 108.79727173 C311.45056934 108.78655082 303.91607836 108.76948557 296.38157654 108.7484436 C296.38328528 109.87959309 296.38328528 109.87959309 296.38502854 111.03359407 C296.45215997 155.72575391 296.50363481 200.41790825 296.53477253 245.1101084 C296.53852466 250.47612582 296.54240762 255.84214314 296.54637146 261.2081604 C296.54715839 262.27643969 296.54794532 263.34471899 296.5487561 264.44537038 C296.5618107 281.74373097 296.58546485 299.04206166 296.61303493 316.3404045 C296.6410876 334.08955087 296.65775251 351.83868157 296.66384202 369.5878492 C296.66795874 380.54039072 296.68096206 391.49284772 296.70532594 402.44536323 C296.72118141 409.95549037 296.72597731 417.4655738 296.72208067 424.97571646 C296.72015884 429.30893458 296.72310902 433.64200497 296.73919296 437.97519684 C296.75381997 441.94490334 296.7545108 445.91436313 296.74427322 449.88408113 C296.74300841 451.31761495 296.74679026 452.75116432 296.75622609 454.18466764 C296.83333281 466.625629 295.26801965 475.63941136 286.38157654 484.7484436 C279.91191363 490.01418663 273.68402976 492.99281213 265.22634697 493.00850582 C264.00609601 493.01557141 262.78584505 493.022637 261.52861679 493.0299167 C260.18288063 493.02766557 258.83714479 493.0252191 257.4914093 493.02259827 C256.05522512 493.02705251 254.6190434 493.03236717 253.18286526 493.03846699 C249.24042047 493.05263538 245.29805456 493.0543105 241.35558796 493.05387008 C237.10182887 493.05551933 232.84810218 493.06858795 228.59436035 493.08006287 C219.29462019 493.10290445 209.99490286 493.11083269 200.69513845 493.11588931 C194.88610717 493.11914756 189.0770825 493.12567085 183.26805496 493.1328907 C167.17826743 493.15245618 151.08848604 493.16886048 134.99868584 493.17176723 C133.45448555 493.17204859 133.45448555 493.17204859 131.8790893 493.17233563 C129.79218396 493.17270187 127.70527861 493.17306557 125.61837326 493.17342674 C124.5824569 493.17360955 123.54654055 493.17379236 122.47923279 493.17398071 C120.92345706 493.17425154 120.92345706 493.17425154 119.33625151 493.17452783 C102.53494665 493.17806851 85.73377004 493.20508449 68.93250965 493.2424786 C51.6747055 493.28058078 34.41696495 493.29992486 17.15911782 493.30022675 C7.47278866 493.30081091 -2.21338754 493.30927666 -11.89967728 493.33822441 C-20.14875996 493.36276393 -28.39763391 493.37000389 -36.64674325 493.35497689 C-40.85287781 493.34781827 -45.05860039 493.34861977 -49.26468849 493.37138748 C-53.1216029 493.39206437 -56.9777909 493.38929697 -60.83469819 493.36851264 C-62.87749282 493.36339697 -64.92030454 493.38273028 -66.96300328 493.40317434 C-78.47125048 493.29898962 -89.25344115 489.9869575 -97.61842346 481.7484436 C-107.49902278 470.22445918 -109.2431508 458.46484141 -109.18482971 443.8109436 C-109.19007435 442.19717045 -109.19635389 440.58340036 -109.20361328 438.96963501 C-109.21395377 435.61108819 -109.20954046 432.25296691 -109.19483948 428.8944397 C-109.17753455 424.58879024 -109.20132174 420.28446079 -109.23632908 415.97895813 C-109.2582509 412.6572281 -109.25687657 409.33581778 -109.24856377 406.01403809 C-109.24774379 404.42558327 -109.25461621 402.8371051 -109.26933479 401.24871826 C-109.28671514 399.03684762 -109.27230528 396.82740292 -109.24952698 394.6156311 C-109.24856522 393.35863403 -109.24760345 392.10163696 -109.24661255 390.80654907 C-108.61842346 387.7484436 -108.61842346 387.7484436 -106.48182583 386.07859802 C-103.12937434 384.52126252 -100.86346299 384.38604692 -97.17579651 384.40786743 C-95.2543708 384.40820732 -95.2543708 384.40820732 -93.29412842 384.40855408 C-91.90612942 384.42387168 -90.51813403 384.43951962 -89.13014221 384.45547485 C-87.70239712 384.46107435 -86.27464624 384.46534278 -84.84689331 384.46833801 C-81.10014258 384.47975911 -77.3537441 384.5092022 -73.60713196 384.54244995 C-69.77956405 384.57321018 -65.95193889 384.58685602 -62.12428284 384.60195923 C-54.62216962 384.63407499 -47.12034601 384.68523764 -39.61842346 384.7484436 C-39.61994234 384.00221074 -39.62146122 383.25597787 -39.62302613 382.48713189 C-39.71258202 338.23730445 -39.78119172 293.98748688 -39.82268478 249.73758693 C-39.82768747 244.42178835 -39.83286477 239.10598996 -39.83815002 233.79019165 C-39.83919927 232.73193344 -39.84024851 231.67367523 -39.84132954 230.58334859 C-39.85872413 213.45904052 -39.89025662 196.33478628 -39.92703465 179.21051011 C-39.96447038 161.63310781 -39.98666489 144.05573365 -39.99477744 126.47829312 C-40.00025974 115.63628779 -40.01756119 104.79443464 -40.05008933 93.95247617 C-40.0712697 86.51286249 -40.07761553 79.07332724 -40.07242897 71.63368563 C-40.06987268 67.34448143 -40.07372925 63.05554275 -40.09524536 58.76638603 C-40.11483584 54.83218319 -40.11561338 50.89842224 -40.10201904 46.96419825 C-40.10034107 45.54808581 -40.10530914 44.13194479 -40.11795619 42.71588782 C-40.2267826 29.76798666 -38.41720823 18.94629759 -29.61842346 9.06484985 C-20.19802904 1.79102968 -11.73327758 -0.13154787 0 0 Z " fill="#FEAD92" transform="translate(108.61842346191406,9.251556396484375)"/>
<path d="M0 0 C9.84026186 5.68115838 16.08753491 13.11840696 19.171875 24.25390625 C19.60618684 27.8516618 19.63229843 31.41969318 19.64030457 35.04084778 C19.65415689 36.10512975 19.66800922 37.16941172 19.68228132 38.26594466 C19.72458146 41.82159116 19.74561691 45.37702846 19.76635742 48.93286133 C19.7917166 51.48806802 19.8181467 54.04326428 19.8455658 56.59844971 C19.92203536 64.26453946 19.97233772 71.93062951 20.01507828 79.59697321 C20.02732326 81.76980086 20.04025072 83.94262343 20.05338883 86.11544585 C20.13493433 99.6611152 20.20559846 113.2068047 20.24726391 126.7526598 C20.2570701 129.88678342 20.26699671 133.02090662 20.27709961 136.1550293 C20.27960007 136.93383733 20.28210053 137.71264537 20.28467677 138.51505365 C20.32678003 151.06577439 20.43406771 163.61504177 20.56872626 176.16507558 C20.70643004 189.10753286 20.78172863 202.04925344 20.79930192 214.9924385 C20.81067427 222.23629564 20.84798922 229.47783017 20.95525169 236.7209568 C21.39213628 267.28776209 21.40041269 293.90569502 5.23124123 320.70372581 C1.60900132 326.78477962 -1.15926352 333.31634121 -4.078125 339.75390625 C-5.10035874 341.93278016 -6.12568837 344.11020888 -7.15625 346.28515625 C-7.5780957 347.17783203 -7.99994141 348.07050781 -8.43457031 348.99023438 C-9.96982022 351.4840741 -11.32084677 352.76046692 -13.828125 354.25390625 C-16.765625 354.44140625 -16.765625 354.44140625 -19.828125 353.25390625 C-25.16039965 345.85843699 -28.68847666 337.36736103 -32.515625 329.12890625 C-33.49494074 327.03787647 -34.47551977 324.94744474 -35.45668232 322.85728097 C-36.13944274 321.39140893 -36.81558368 319.92242275 -37.48295295 318.44947982 C-39.33134667 314.38024547 -41.26430274 310.40038936 -43.3934803 306.47018814 C-51.13081473 291.70630222 -52.23823234 279.05093141 -52.02685547 262.58886719 C-52.0305929 259.99103357 -52.03868617 257.39320319 -52.05075073 254.7953949 C-52.0718679 248.53134324 -52.04058005 242.26865981 -51.99047421 236.00481656 C-51.93408643 228.69263121 -51.93192648 221.38070769 -51.93158819 214.06834117 C-51.92922489 201.01971784 -51.87959886 187.97171592 -51.80224609 174.92333984 C-51.72739651 162.28882394 -51.68504029 149.65475928 -51.67919922 137.02001953 C-51.6788336 136.23989965 -51.67846797 135.45977977 -51.67809127 134.6560199 C-51.67773333 133.87718351 -51.67737539 133.09834713 -51.6770066 132.29590964 C-51.67627571 130.72743336 -51.67553097 129.15895708 -51.67477226 127.5904808 C-51.67440123 126.8167839 -51.6740302 126.04308699 -51.67364793 125.24594472 C-51.6665001 113.15675972 -51.62961101 101.06764336 -51.58978578 88.97852854 C-51.57578237 84.61218365 -51.56619328 80.24585501 -51.55986308 75.87949255 C-51.54879388 68.31241362 -51.51733608 60.74581054 -51.46348953 53.17891121 C-51.44864103 50.67075992 -51.4404677 48.1625587 -51.43952942 45.65436363 C-51.43700345 42.22544801 -51.40983424 38.79757001 -51.37643433 35.36883545 C-51.38126449 34.3818692 -51.38609466 33.39490295 -51.3910712 32.37802863 C-51.23036306 21.80785569 -47.35833388 12.72695985 -39.828125 5.25390625 C-28.39184466 -3.21002864 -13.2578184 -6.38421792 0 0 Z " fill="#FBE101" transform="translate(492.828125,147.74609375)"/>
<path d="M0 0 C19.79324287 -0.09353853 39.58644073 -0.16402581 59.37985897 -0.20724869 C68.57077877 -0.22785335 77.76156106 -0.25593379 86.95239258 -0.30175781 C94.96531648 -0.34168985 102.97814076 -0.36744804 110.99116141 -0.37635398 C115.23205086 -0.38155798 119.47265537 -0.39374528 123.71345329 -0.42292023 C127.70994438 -0.45019015 131.70603472 -0.45842181 135.70261002 -0.45243073 C137.16466644 -0.45352581 138.62673708 -0.46141077 140.08871269 -0.4768219 C148.03607088 -0.55644627 155.19712134 -0.55474357 162 4 C165.54881526 8.24492902 165.56164136 12.00350971 165.40625 17.3515625 C164.65059819 24.13789707 162.7291702 30.59097702 160.83007812 37.13427734 C159.93732202 40.21638651 159.06897778 43.30476042 158.203125 46.39453125 C153.34256799 63.65839989 148.19668691 80.83496572 143 98 C142.39497147 97.35125916 141.78994293 96.70251831 141.1665802 96.03411865 C136.59841259 93.09966118 132.66010065 93.42759405 127.3347168 93.45410156 C126.2610939 93.44376389 125.18747101 93.43342621 124.08131409 93.42277527 C120.53712993 93.39330762 116.99351588 93.3918472 113.44921875 93.390625 C110.99012663 93.37564611 108.53104458 93.35891958 106.07197571 93.34051514 C99.60293113 93.2967972 93.13402228 93.27683247 86.66485596 93.26177979 C80.06229614 93.2422249 73.45988324 93.200253 66.85742188 93.16015625 C53.90499766 93.08480583 40.95259591 93.03378216 28 93 C26.56400663 88.73430989 25.13314683 84.46691409 23.703125 80.19921875 C23.10008545 78.40816711 23.10008545 78.40816711 22.48486328 76.58093262 C19.51075613 67.69344033 16.8443697 58.75337423 14.33203125 49.7265625 C12.57238021 43.42040192 10.60207884 37.18409771 8.61767578 30.94580078 C6.72116583 24.97141962 4.86270633 18.98498427 3 13 C2.67644531 11.97003906 2.35289062 10.94007812 2.01953125 9.87890625 C1.74496094 8.99074219 1.47039062 8.10257813 1.1875 7.1875 C0.95417969 6.43855469 0.72085938 5.68960938 0.48046875 4.91796875 C0 3 0 3 0 0 Z " fill="#FAE101" transform="translate(164,79)"/>
<path d="M0 0 C8.80354801 7.40190977 14.3468952 16.42274397 16.25 27.8125 C16.35018247 30.09560229 16.39819034 32.38124132 16.41113281 34.66650391 C16.41858017 35.66986534 16.41858017 35.66986534 16.42617798 36.6934967 C16.44070826 38.89202929 16.44758342 41.09048992 16.453125 43.2890625 C16.45888051 44.82172649 16.46463819 46.35439047 16.47039795 47.88705444 C16.48087945 51.09300063 16.48674189 54.29892192 16.49023438 57.50488281 C16.49573736 61.6153051 16.51981532 65.72539918 16.54820633 69.83571815 C16.56680708 72.99782283 16.57203675 76.15984764 16.57357025 79.32200241 C16.57659912 80.83789251 16.58463559 82.35378112 16.59775543 83.86961746 C16.61477582 85.98576439 16.61294705 88.10109792 16.60644531 90.21728516 C16.61191376 92.02333725 16.61191376 92.02333725 16.61749268 93.86587524 C16.25 96.8125 16.25 96.8125 14.91522217 98.66220093 C11.45619219 101.05162322 8.25895747 100.94367608 4.19311523 100.95776367 C2.94429062 100.96414352 1.695466 100.97052338 0.40879822 100.97709656 C-0.95793621 100.97862622 -2.32467116 100.97973965 -3.69140625 100.98046875 C-5.09805841 100.98368424 -6.50471023 100.98704853 -7.91136169 100.99055481 C-10.86449965 100.99654575 -13.81760835 100.99839498 -16.77075195 100.99780273 C-20.53072379 100.99770165 -24.29050449 101.01129779 -28.05043125 101.02857494 C-30.95976091 101.03977378 -33.86904571 101.04171946 -36.7783947 101.04119301 C-38.16288849 101.04236344 -39.54738381 101.0467318 -40.93185616 101.05452538 C-57.75623122 101.1402932 -57.75623122 101.1402932 -63.75 98.8125 C-66.1141319 95.26630215 -66.01250483 93.73428115 -66.04052734 89.52783203 C-66.05328705 88.22862823 -66.06604675 86.92942444 -66.07919312 85.59085083 C-66.0822533 84.16733957 -66.0844797 82.74382631 -66.0859375 81.3203125 C-66.09236983 79.85358552 -66.09909851 78.38685982 -66.10610962 76.9201355 C-66.11809635 73.83832841 -66.12178971 70.75663344 -66.12060547 67.67480469 C-66.12040377 63.76020483 -66.1475423 59.84634327 -66.18214989 55.93191719 C-66.2046101 52.89634026 -66.20843701 49.86093449 -66.20738602 46.82528305 C-66.20971965 45.3846371 -66.21841431 43.94398477 -66.23405075 42.50342178 C-66.38618122 27.02033428 -63.03696383 14.61597093 -52.5 3.0625 C-38.55963878 -10.14254547 -15.29736922 -11.11126481 0 0 Z " fill="#FF9C83" transform="translate(458.75,17.1875)"/>
<path d="M0 0 C1.87301033 -0.00934319 1.87301033 -0.00934319 3.78385925 -0.01887512 C5.14017128 -0.01018166 6.49647942 -0.00086309 7.8527832 0.0090332 C9.25657653 0.00955257 10.66037059 0.00903192 12.06416321 0.00752258 C15.0054512 0.00761217 17.94646439 0.01800806 20.88769531 0.03613281 C24.63195542 0.05871483 28.37581074 0.05938162 32.12012005 0.05261517 C35.02089442 0.04924847 37.92157896 0.05595735 40.8223362 0.0657444 C42.20123637 0.06955825 43.58014661 0.0707607 44.95905113 0.06915855 C60.81308561 0.06608079 60.81308561 0.06608079 67.71606445 2.37231445 C70.5313249 5.1875749 69.98201522 6.99751833 70.0065918 10.94238281 C70.01330902 11.61750916 70.02002625 12.2926355 70.02694702 12.98822021 C70.04600387 15.22960714 70.04985666 17.47069518 70.05200195 19.7121582 C70.05843048 21.2747866 70.06515889 22.8374138 70.07217407 24.40003967 C70.08417017 27.68452741 70.08785311 30.96890986 70.08666992 34.25341797 C70.08646795 38.43614308 70.11363221 42.6181794 70.14821434 46.80074215 C70.17061347 50.03439849 70.17450332 53.26789341 70.17345047 56.50161934 C70.17579221 58.04160471 70.18453425 59.58159551 70.2001152 61.12150383 C70.32684215 74.95535748 67.82076862 86.63038539 58.1262207 97.0871582 C48.29473659 106.1783894 36.3367247 108.96245459 23.2824707 108.7512207 C13.45822328 107.70746167 4.22180254 102.62746688 -2.1862793 95.15356445 C-10.57176883 83.949274 -11.90435333 73.00588187 -11.8503418 59.43481445 C-11.85558644 57.8210413 -11.86186597 56.20727121 -11.86912537 54.59350586 C-11.87946585 51.23495904 -11.87505255 47.87683776 -11.86035156 44.51831055 C-11.84304664 40.21266109 -11.86683383 35.90833164 -11.90184116 31.60282898 C-11.92376298 28.28109895 -11.92238865 24.95968863 -11.91407585 21.63790894 C-11.91325587 20.04945412 -11.9201283 18.46097595 -11.93484688 16.87258911 C-11.95222723 14.66071847 -11.93781737 12.45127377 -11.91503906 10.23950195 C-11.9140773 8.98250488 -11.91311554 7.72550781 -11.91212463 6.43041992 C-11.28393555 3.37231445 -11.28393555 3.37231445 -9.13723755 1.46638489 C-5.89113168 0.2216977 -3.47459255 -0.001996 0 0 Z " fill="#FF9B83" transform="translate(11.283935546875,393.627685546875)"/>
<path d="M0 0 C0.84775497 -0.01268417 1.69550995 -0.02536835 2.56895447 -0.03843689 C3.4814949 -0.03550125 4.39403534 -0.03256561 5.33422852 -0.02954102 C6.74527611 -0.03740379 6.74527611 -0.03740379 8.18482971 -0.04542542 C10.1744793 -0.05184933 12.16416684 -0.05050385 14.15380859 -0.04199219 C17.19836103 -0.03348853 20.24103371 -0.06222812 23.28540039 -0.09399414 C25.21834254 -0.09560639 27.15128801 -0.09502818 29.08422852 -0.09204102 C29.99474472 -0.10327499 30.90526093 -0.11450897 31.84336853 -0.12608337 C38.14080767 -0.05665633 38.14080767 -0.05665633 41.29736328 2.23413086 C43.27800787 5.14147505 44.23250151 7.98308655 45.27563477 11.34155273 C45.48720215 12.0112207 45.69876953 12.68088867 45.91674805 13.37084961 C46.54806632 15.37850831 47.16296743 17.39063763 47.77563477 19.40405273 C48.09274414 20.4159668 48.40985352 21.42788086 48.73657227 22.47045898 C49.76672214 25.77662375 50.77248408 29.08958866 51.77563477 32.40405273 C55.78886908 45.64876031 59.83956442 58.87828164 64.03295898 72.06713867 C65.32621079 76.136503 66.61385829 80.20763687 67.90063477 84.27905273 C68.27865234 85.47510132 68.27865234 85.47510132 68.66430664 86.6953125 C70.39040312 92.16451067 72.09069035 97.64107041 73.76391602 103.12670898 C74.53959125 105.63941756 75.32940224 108.14573658 76.13110352 110.65014648 C76.47806274 111.74033081 76.47806274 111.74033081 76.83203125 112.85253906 C77.28504262 114.27407949 77.74143909 115.69454683 78.20166016 117.11376953 C79.11831018 119.9992526 79.77563477 122.35551856 79.77563477 125.40405273 C80.62046984 125.39852198 80.62046984 125.39852198 81.48237228 125.39287949 C95.18653798 125.30454395 108.8906538 125.23860613 122.59504318 125.19680405 C129.22240542 125.17591048 135.84956249 125.14755992 142.47680664 125.10229492 C148.86992668 125.05890124 155.26284912 125.03492897 161.65610504 125.02454376 C164.09782269 125.01714081 166.53952927 125.00268501 168.98116302 124.98113251 C172.39564059 124.95218556 175.80929685 124.94809321 179.22387695 124.94995117 C180.23807709 124.93557007 181.25227722 124.92118896 182.29721069 124.90637207 C189.09936058 124.94654442 189.09936058 124.94654442 192.43902588 127.20587158 C193.77563477 129.40405273 193.77563477 129.40405273 193.71313477 133.02905273 C192.77563477 136.40405273 192.77563477 136.40405273 189.77563477 138.40405273 C187.53799343 138.66017914 187.53799343 138.66017914 184.87266541 138.66906738 C183.86173325 138.67734055 182.85080109 138.68561371 181.80923462 138.69413757 C180.70107391 138.69315567 179.59291321 138.69217377 178.45117188 138.69116211 C177.28351791 138.69799515 176.11586395 138.70482819 174.91282654 138.71186829 C172.37392547 138.72547341 169.83499685 138.73451566 167.29606438 138.73957825 C163.28360709 138.74784263 159.27131046 138.76803743 155.25892639 138.79211426 C146.01887384 138.845257 136.77876939 138.87864276 127.53862762 138.91187286 C119.06761477 138.94253531 110.59667421 138.97732878 102.12575537 139.02818346 C97.49088518 139.05534363 92.85611134 139.06705826 88.22117615 139.07629395 C85.8043486 139.08925969 83.38752394 139.10277902 80.97070312 139.11694336 C79.86051819 139.11596146 78.75033325 139.11497955 77.60650635 139.1139679 C76.59839401 139.12224106 75.59028168 139.13051422 74.55162048 139.13903809 C73.23284865 139.14343777 73.23284865 139.14343777 71.88743496 139.14792633 C69.55836138 139.21010856 69.55836138 139.21010856 67.77563477 141.40405273 C67.53350604 143.38533782 67.53350604 143.38533782 67.65063477 145.52905273 C67.69188477 146.80780273 67.73313477 148.08655273 67.77563477 149.40405273 C70.71303668 150.38318671 72.61146188 150.53317668 75.671875 150.54208374 C76.681362 150.54753708 77.690849 150.55299042 78.73092651 150.55860901 C79.83751617 150.55965134 80.94410583 150.56069366 82.08422852 150.56176758 C83.25027618 150.5668483 84.41632385 150.57192902 85.6177063 150.5771637 C88.15334315 150.58787537 90.68898951 150.59649241 93.22463989 150.60328293 C97.23313524 150.61504894 101.24155259 150.6342109 105.25 150.65640259 C116.64815423 150.71831934 128.04630283 150.77237911 139.44458008 150.80541992 C145.74027727 150.82374966 152.03583267 150.8526612 158.33142567 150.89342463 C161.66320964 150.91451611 164.99477506 150.92827087 168.32662964 150.9322319 C172.04031331 150.93711534 175.75346467 150.96020657 179.46704102 150.98754883 C181.12692551 150.98303963 181.12692551 150.98303963 182.82034302 150.97843933 C183.82983002 150.98953232 184.83931702 151.00062531 185.87939453 151.01205444 C187.19678368 151.01701966 187.19678368 151.01701966 188.54078674 151.02208519 C191.26388048 151.48750092 192.15199842 152.19845075 193.77563477 154.40405273 C194.31632039 158.0343705 194.23943318 159.72619352 192.15063477 162.77905273 C189.17184516 164.81717194 187.31241141 164.72557788 183.77563477 164.40405273 C184.10563477 165.39405273 184.43563477 166.38405273 184.77563477 167.40405273 C185.59791407 174.11708709 184.44373842 179.69811372 180.77563477 185.40405273 C176.7887381 189.82554003 172.53986615 192.9858048 166.52563477 193.65405273 C160.39822547 193.95295075 155.76826629 193.05745906 150.77563477 189.40405273 C145.95251809 184.97750343 143.01362363 180.56564186 142.63110352 173.87670898 C142.52120153 166.91291922 142.52120153 166.91291922 143.77563477 164.40405273 C130.41063477 164.89905273 130.41063477 164.89905273 116.77563477 165.40405273 C116.77563477 169.69405273 116.77563477 173.98405273 116.77563477 178.40405273 C113.92413697 185.53279722 110.71341879 189.15287361 103.77563477 192.40405273 C98.04718647 194.3135355 92.00000971 194.31590989 86.46313477 191.77905273 C81.51472354 188.95995785 77.8385734 184.74559028 75.77563477 179.40405273 C75.58032227 175.95092773 75.58032227 175.95092773 75.65063477 172.15405273 C75.66868164 170.89077148 75.68672852 169.62749023 75.70532227 168.32592773 C75.72852539 167.36170898 75.75172852 166.39749023 75.77563477 165.40405273 C74.79723633 165.25709961 74.79723633 165.25709961 73.79907227 165.10717773 C66.91893169 163.93004454 62.37623575 162.22137047 57.52563477 156.96655273 C53.65044729 151.29217107 52.93982602 146.18339038 53.77563477 139.40405273 C55.47137408 134.04185003 58.02982667 130.5262949 62.77563477 127.40405273 C63.43563477 127.07405273 64.09563477 126.74405273 64.77563477 126.40405273 C64.21691575 119.42423458 62.26057603 113.30866642 59.96313477 106.71655273 C55.66446961 94.20767909 51.81402089 81.59394303 48.08813477 68.90405273 C45.89691587 61.46208819 43.67545105 54.03142214 41.36157227 46.62670898 C41.1609166 45.98418182 40.96026093 45.34165466 40.75352478 44.67965698 C39.78570434 41.58471434 38.81267 38.49151724 37.83349609 35.40014648 C35.54759973 28.12340229 33.53436148 20.82613254 31.77563477 13.40405273 C30.70079834 13.41976318 29.62596191 13.43547363 28.51855469 13.45166016 C24.53230274 13.50594384 20.54608349 13.54039695 16.55957031 13.56884766 C14.83392849 13.58393789 13.10832505 13.60441249 11.3828125 13.63037109 C8.90297989 13.66674482 6.42365413 13.68377632 3.94360352 13.69702148 C2.78564522 13.72024727 2.78564522 13.72024727 1.60429382 13.74394226 C-3.70211404 13.74561105 -3.70211404 13.74561105 -6.21142578 12.10449219 C-7.93833162 9.20550468 -7.57463246 6.67321354 -7.22436523 3.40405273 C-5.08021189 0.52087478 -3.52730844 0.02557558 0 0 Z " fill="#4C5354" transform="translate(112.224365234375,46.595947265625)"/>
<path d="M0 0 C19.79324287 -0.09353853 39.58644073 -0.16402581 59.37985897 -0.20724869 C68.57077877 -0.22785335 77.76156106 -0.25593379 86.95239258 -0.30175781 C94.96531648 -0.34168985 102.97814076 -0.36744804 110.99116141 -0.37635398 C115.23205086 -0.38155798 119.47265537 -0.39374528 123.71345329 -0.42292023 C127.70994438 -0.45019015 131.70603472 -0.45842181 135.70261002 -0.45243073 C137.16466644 -0.45352581 138.62673708 -0.46141077 140.08871269 -0.4768219 C148.04674602 -0.55655322 155.18220321 -0.54249693 162 4 C165.01501732 7.5165594 165.38948279 10.31525034 165.3125 14.875 C165.30863281 15.86242187 165.30476562 16.84984375 165.30078125 17.8671875 C165 21 165 21 163 28 C111.85 28 60.7 28 8 28 C4.62046025 20.11440724 4.62046025 20.11440724 3.61328125 16.484375 C3.39736328 15.70835938 3.18144531 14.93234375 2.95898438 14.1328125 C2.63897461 12.95332031 2.63897461 12.95332031 2.3125 11.75 C1.97508789 10.54730469 1.97508789 10.54730469 1.63085938 9.3203125 C0.73826108 6.0754871 0 3.38605452 0 0 Z " fill="#FAE103" transform="translate(164,79)"/>
<path d="M0 0 C10.5127284 6.06939895 14.90480958 12.87506512 19.171875 24.25390625 C19.171875 35.14390625 19.171875 46.03390625 19.171875 57.25390625 C-3.928125 57.25390625 -27.028125 57.25390625 -50.828125 57.25390625 C-50.828125 18.16116431 -50.828125 18.16116431 -41.88671875 7.296875 C-31.1739771 -3.33455551 -13.70274402 -6.59846902 0 0 Z " fill="#FA3D47" transform="translate(492.828125,147.74609375)"/>
<path d="M0 0 C23.1 0 46.2 0 70 0 C70 11.49050492 70 11.49050492 66.95703125 17.68359375 C66.47682777 18.71910118 66.47682777 18.71910118 65.98692322 19.77552795 C64.94718 22.00538514 63.88083384 24.22121831 62.8125 26.4375 C62.08285509 27.98368932 61.35468013 29.5305731 60.62792969 31.078125 C59.1524975 34.21095895 57.66544168 37.33785867 56.16845703 40.46044922 C54.4536524 44.04031654 52.76610679 47.63183537 51.09428406 51.23194885 C49.65624924 54.32605004 48.20266568 57.41274048 46.75 60.5 C46.22639893 61.62591553 45.70279785 62.75183105 45.16333008 63.91186523 C44.6711499 64.94126221 44.17896973 65.97065918 43.671875 67.03125 C43.2500293 67.92392578 42.82818359 68.81660156 42.39355469 69.73632812 C40.85830478 72.23016785 39.50727823 73.50656067 37 75 C34.0625 75.1875 34.0625 75.1875 31 74 C25.66891428 66.6061797 22.13356776 58.11470931 18.3125 49.875 C17.60230976 48.34826253 16.89202258 46.82157015 16.18164062 45.29492188 C15.11846975 43.00892679 14.05616064 40.72255218 12.99661255 38.43487549 C10.94657884 34.01268326 8.85776416 29.61231088 6.73046875 25.2265625 C5.82017414 23.31777431 4.91000611 21.40892575 4 19.5 C3.58532471 18.66710449 3.17064941 17.83420898 2.7434082 16.97607422 C-0.27252987 10.55181669 0 7.80868795 0 0 Z " fill="#F6CEAD" transform="translate(442,427)"/>
<path d="M0 0 C1.63286114 1.0343008 1.63286114 1.0343008 3 3 C3.29257276 5.68594008 3.40041228 8.13970985 3.3742218 10.82618713 C3.37819621 11.63179909 3.38217061 12.43741105 3.38626546 13.26743549 C3.39591608 15.97607544 3.38405384 18.68419669 3.37231445 21.39282227 C3.37474149 23.33088374 3.37845995 25.26894397 3.38337708 27.20700073 C3.39280116 32.477517 3.38334822 37.74784806 3.37004495 43.01834989 C3.35875099 48.52541215 3.36283632 54.03246501 3.36479187 59.53953552 C3.36567542 68.78769975 3.35458102 78.03579076 3.33618164 87.28393555 C3.31500685 97.98865017 3.3115051 108.69325753 3.3177436 119.39798886 C3.32343039 129.68107561 3.31780009 139.96412445 3.30657005 150.24720573 C3.30191561 154.63035722 3.30105385 159.01348558 3.3031559 163.39663887 C3.30503408 168.55366432 3.29697126 173.71057999 3.2810955 178.86758041 C3.2768388 180.7647182 3.27601135 182.66186711 3.27878571 184.55900764 C3.28198822 187.139726 3.27297488 189.72011232 3.26069641 192.30079651 C3.26447573 193.05944128 3.26825506 193.81808605 3.27214891 194.59972006 C3.22832914 199.77167086 3.22832914 199.77167086 1 202 C-2.5 202.25 -2.5 202.25 -6 202 C-8.49913083 199.50086917 -8.2432556 198.00993295 -8.27214891 194.59972006 C-8.26836958 193.84107529 -8.26459026 193.08243052 -8.26069641 192.30079651 C-8.26452196 191.49674454 -8.26834751 190.69269257 -8.27228898 189.8642754 C-8.2826538 187.15497558 -8.27862028 184.44588632 -8.2746582 181.73657227 C-8.27900276 179.80028079 -8.28418504 177.86399103 -8.29014587 175.92770386 C-8.30357479 170.65710853 -8.30411023 165.38658473 -8.30158257 160.11597562 C-8.30051549 155.72209178 -8.30538949 151.32822257 -8.310188 146.93434185 C-8.32129666 136.57169536 -8.32171296 126.20908511 -8.31567383 115.84643555 C-8.30963177 105.14230865 -8.32194786 94.43831312 -8.3432439 83.73420864 C-8.36083479 74.55626954 -8.36686523 65.37837234 -8.36360615 56.20041698 C-8.36178913 50.71346051 -8.36447111 45.22659773 -8.37832069 39.73965645 C-8.39085362 34.58097493 -8.38899811 29.42249884 -8.37590981 24.26382065 C-8.37353454 22.36709844 -8.37631246 20.47036197 -8.38453293 18.57365608 C-8.39492216 15.99092469 -8.38696332 13.40889262 -8.3742218 10.82618713 C-8.38159609 10.06977308 -8.38897037 9.31335903 -8.39656812 8.53402334 C-8.34400907 3.49462302 -8.34400907 3.49462302 -6.63286114 1.0343008 C-4.27427644 -0.459694 -2.73359809 -0.41003971 0 0 Z " fill="#FBCB01" transform="translate(479,215)"/>
<path d="M0 0 C51.15 0 102.3 0 155 0 C152 12 152 12 151 13 C149.10207019 13.10880464 147.2000693 13.1468932 145.29905701 13.15821838 C144.0608017 13.1680072 142.82254639 13.17779602 141.54676819 13.18788147 C140.16195717 13.19378642 138.77714575 13.19959682 137.39233398 13.20532227 C135.94392616 13.21489543 134.49552115 13.22490517 133.04711914 13.23532104 C129.10310729 13.2624371 125.15908339 13.28341025 121.21502948 13.30332303 C117.09768125 13.32514141 112.98037044 13.35255032 108.86305237 13.37937927 C101.06096851 13.42936244 93.25886395 13.47428032 85.45673949 13.51740164 C76.57657039 13.56672606 67.69643882 13.62166191 58.81630599 13.67708123 C40.54423882 13.79098757 22.27213625 13.89780767 4 14 C3.33164276 11.85469262 2.6653574 9.70873966 2 7.5625 C1.62875 6.36753906 1.2575 5.17257813 0.875 3.94140625 C0 1 0 1 0 0 Z " fill="#FAB701" transform="translate(172,107)"/>
<path d="M0 0 C1.89286743 -0.01268921 1.89286743 -0.01268921 3.82397461 -0.02563477 C5.22509894 -0.01980167 6.626222 -0.01365715 8.02734375 -0.00723267 C9.50073638 -0.01129709 10.97412597 -0.01663824 12.44750977 -0.02316284 C16.45161387 -0.03685775 20.45548649 -0.03152892 24.45959473 -0.02202559 C28.64624667 -0.0144402 32.83287854 -0.02147147 37.01953125 -0.02618408 C44.05081752 -0.03164492 51.08200932 -0.02444146 58.11328125 -0.01016235 C66.24708629 0.00616482 74.38066576 0.00087654 82.51446533 -0.01564157 C89.49287856 -0.02924713 96.4712238 -0.03118067 103.449646 -0.02332556 C107.6197886 -0.01864391 111.78982511 -0.01803764 115.95996094 -0.02793503 C119.88014304 -0.03658894 123.80003377 -0.03061189 127.72018433 -0.01325226 C129.16054805 -0.00927895 130.60093622 -0.01043588 132.04129028 -0.01704025 C134.00408056 -0.02521165 135.96692431 -0.01315777 137.9296875 0 C139.57892212 0.00169662 139.57892212 0.00169662 141.26147461 0.00342751 C143.96484375 0.38095093 143.96484375 0.38095093 145.85375977 1.68210411 C146.96484375 3.38095093 146.96484375 3.38095093 146.77734375 6.94345093 C145.96484375 10.38095093 145.96484375 10.38095093 143.96484375 12.38095093 C141.38452244 12.63821983 141.38452244 12.63821983 138.04994202 12.64837646 C136.78940506 12.65690643 135.5288681 12.6654364 134.23013306 12.67422485 C132.82537829 12.67352577 131.42062363 12.67260267 130.01586914 12.67147827 C128.54262449 12.67745983 127.06938298 12.68426451 125.59614563 12.6918335 C121.58790932 12.70953806 117.57975834 12.71419072 113.57148671 12.71546507 C110.22889341 12.71736134 106.88632011 12.72471567 103.54373449 12.73180926 C95.6597613 12.74810753 87.7758338 12.75297688 79.8918457 12.7515564 C71.75064342 12.75035437 63.609706 12.77146489 55.46857077 12.80304372 C48.48593839 12.82916672 41.50339273 12.83992538 34.52071184 12.83864558 C30.34714389 12.83813479 26.17381124 12.84388173 22.00029182 12.86500168 C18.07597827 12.8843176 14.15212606 12.88455468 10.22779655 12.86996841 C8.78580937 12.86787093 7.34379381 12.87263687 5.90185547 12.88468933 C3.93687099 12.90005256 1.97173035 12.8884753 0.00672913 12.87542725 C-1.09405944 12.87651678 -2.194848 12.87760632 -3.3289938 12.87872887 C-6.03515625 12.38095093 -6.03515625 12.38095093 -7.88933659 10.51020241 C-9.30988864 7.87042178 -9.49008652 6.33799766 -9.03515625 3.38095093 C-6.54838759 -0.15215494 -4.13688899 0.00425574 0 0 Z " fill="#FFFEFE" transform="translate(205.03515625,397.6190490722656)"/>
<path d="M0 0 C1.89286743 -0.01268921 1.89286743 -0.01268921 3.82397461 -0.02563477 C5.22509894 -0.01980167 6.626222 -0.01365715 8.02734375 -0.00723267 C9.50073638 -0.01129709 10.97412597 -0.01663824 12.44750977 -0.02316284 C16.45161387 -0.03685775 20.45548649 -0.03152892 24.45959473 -0.02202559 C28.64624667 -0.0144402 32.83287854 -0.02147147 37.01953125 -0.02618408 C44.05081752 -0.03164492 51.08200932 -0.02444146 58.11328125 -0.01016235 C66.24708629 0.00616482 74.38066576 0.00087654 82.51446533 -0.01564157 C89.49287856 -0.02924713 96.4712238 -0.03118067 103.449646 -0.02332556 C107.6197886 -0.01864391 111.78982511 -0.01803764 115.95996094 -0.02793503 C119.88014304 -0.03658894 123.80003377 -0.03061189 127.72018433 -0.01325226 C129.16054805 -0.00927895 130.60093622 -0.01043588 132.04129028 -0.01704025 C134.00408056 -0.02521165 135.96692431 -0.01315777 137.9296875 0 C139.57892212 0.00169662 139.57892212 0.00169662 141.26147461 0.00342751 C143.96484375 0.38095093 143.96484375 0.38095093 145.84985352 1.68210411 C146.96484375 3.38095093 146.96484375 3.38095093 146.83984375 6.94345093 C145.96484375 10.38095093 145.96484375 10.38095093 142.96484375 12.38095093 C140.29550266 12.63821983 140.29550266 12.63821983 137.01234436 12.64837646 C135.76870621 12.65690643 134.52506805 12.6654364 133.2437439 12.67422485 C131.86309802 12.67352581 130.48245224 12.67260274 129.10180664 12.67147827 C127.64974115 12.67746171 126.19767884 12.68426683 124.74562073 12.6918335 C120.79935769 12.70951847 116.85318136 12.71418989 112.90688252 12.71546507 C109.61403975 12.71736307 106.32121723 12.72471937 103.02838224 12.73180926 C95.26085444 12.74809991 87.493373 12.75297755 79.72583008 12.7515564 C71.70902526 12.75035441 63.69248943 12.7714659 55.6757527 12.80304372 C48.79584359 12.82917942 41.91602248 12.83992485 35.03606409 12.83864558 C30.92563484 12.83813519 26.81544464 12.8438605 22.70506477 12.86500168 C18.83982855 12.88433902 14.97506052 12.88453988 11.10980797 12.86996841 C9.69081566 12.86787365 8.2717944 12.87262093 6.85285187 12.88468933 C4.91673563 12.90009059 2.98046042 12.88845791 1.04432678 12.87542725 C-0.03949248 12.87651678 -1.12331175 12.87760632 -2.23997402 12.87872887 C-5.71627628 12.25965418 -6.89935388 11.14149873 -9.03515625 8.38095093 C-9.52075831 5.53671026 -9.56371939 4.12936274 -7.88500977 1.75241661 C-5.23381477 -0.21315684 -3.2811086 0.00337537 0 0 Z " fill="#FFFCFB" transform="translate(205.03515625,261.6190490722656)"/>
<path d="M0 0 C1.89286743 -0.01268921 1.89286743 -0.01268921 3.82397461 -0.02563477 C5.22509894 -0.01980167 6.626222 -0.01365715 8.02734375 -0.00723267 C9.50073638 -0.01129709 10.97412597 -0.01663824 12.44750977 -0.02316284 C16.45161387 -0.03685775 20.45548649 -0.03152892 24.45959473 -0.02202559 C28.64624667 -0.0144402 32.83287854 -0.02147147 37.01953125 -0.02618408 C44.05081752 -0.03164492 51.08200932 -0.02444146 58.11328125 -0.01016235 C66.24708629 0.00616482 74.38066576 0.00087654 82.51446533 -0.01564157 C89.49287856 -0.02924713 96.4712238 -0.03118067 103.449646 -0.02332556 C107.6197886 -0.01864391 111.78982511 -0.01803764 115.95996094 -0.02793503 C119.88014304 -0.03658894 123.80003377 -0.03061189 127.72018433 -0.01325226 C129.16054805 -0.00927895 130.60093622 -0.01043588 132.04129028 -0.01704025 C134.00408056 -0.02521165 135.96692431 -0.01315777 137.9296875 0 C139.57892212 0.00169662 139.57892212 0.00169662 141.26147461 0.00342751 C143.96484375 0.38095093 143.96484375 0.38095093 145.84985352 1.68210411 C146.96484375 3.38095093 146.96484375 3.38095093 146.83984375 6.94345093 C145.96484375 10.38095093 145.96484375 10.38095093 142.96484375 12.38095093 C140.29550266 12.63821983 140.29550266 12.63821983 137.01234436 12.64837646 C135.76870621 12.65690643 134.52506805 12.6654364 133.2437439 12.67422485 C131.86309802 12.67352581 130.48245224 12.67260274 129.10180664 12.67147827 C127.64974115 12.67746171 126.19767884 12.68426683 124.74562073 12.6918335 C120.79935769 12.70951847 116.85318136 12.71418989 112.90688252 12.71546507 C109.61403975 12.71736307 106.32121723 12.72471937 103.02838224 12.73180926 C95.26085444 12.74809991 87.493373 12.75297755 79.72583008 12.7515564 C71.70902526 12.75035441 63.69248943 12.7714659 55.6757527 12.80304372 C48.79584359 12.82917942 41.91602248 12.83992485 35.03606409 12.83864558 C30.92563484 12.83813519 26.81544464 12.8438605 22.70506477 12.86500168 C18.83982855 12.88433902 14.97506052 12.88453988 11.10980797 12.86996841 C9.69081566 12.86787365 8.2717944 12.87262093 6.85285187 12.88468933 C4.91673563 12.90009059 2.98046042 12.88845791 1.04432678 12.87542725 C-0.03949248 12.87651678 -1.12331175 12.87760632 -2.23997402 12.87872887 C-5.71627628 12.25965418 -6.89935388 11.14149873 -9.03515625 8.38095093 C-9.52075831 5.53671026 -9.56371939 4.12936274 -7.88500977 1.75241661 C-5.23381477 -0.21315684 -3.2811086 0.00337537 0 0 Z " fill="#FFFDFC" transform="translate(205.03515625,329.6190490722656)"/>
<path d="M0 0 C65.835 0.495 65.835 0.495 133 1 C131 11 131 11 130 14 C88.75 14 47.5 14 5 14 C0 2 0 2 0 0 Z " fill="#FAB801" transform="translate(183,143)"/>
<path d="M0 0 C2.75146484 0.40600586 2.75146484 0.40600586 4.68896484 1.46850586 C6.4658041 4.7086245 5.64922516 6.88869802 4.75146484 10.40600586 C2.83835253 13.18586716 0.52217693 15.47701246 -1.88134766 17.83569336 C-2.88643875 18.84939499 -2.88643875 18.84939499 -3.91183472 19.88357544 C-5.32854922 21.30436184 -6.75282518 22.71764352 -8.18408203 24.1237793 C-10.3666384 26.27421061 -12.51534225 28.45476404 -14.66259766 30.64038086 C-16.04609469 32.01991286 -17.43145191 33.39758236 -18.81884766 34.77319336 C-19.45766876 35.42415985 -20.09648987 36.07512634 -20.75466919 36.74581909 C-24.73994044 40.60890702 -27.44483234 42.37738094 -33.24853516 42.40600586 C-35.36572266 41.28881836 -35.36572266 41.28881836 -37.12353516 39.53100586 C-37.78224609 38.88389648 -38.44095703 38.23678711 -39.11962891 37.57006836 C-39.82216797 36.85592773 -40.52470703 36.14178711 -41.24853516 35.40600586 C-42.06451172 34.67124023 -42.88048828 33.93647461 -43.72119141 33.17944336 C-50.68783094 26.75379485 -50.68783094 26.75379485 -51.49853516 22.53100586 C-51.24853516 19.40600586 -51.24853516 19.40600586 -50.18603516 17.46850586 C-47.33540079 15.90525476 -45.46612283 16.02099537 -42.24853516 16.40600586 C-39.61572266 18.62866211 -39.61572266 18.62866211 -37.12353516 21.46850586 C-34.7419959 24.29256973 -34.7419959 24.29256973 -32.24853516 26.40600586 C-29.07014767 26.36796205 -27.96320613 25.1470573 -25.59472656 22.99755859 C-24.58961553 21.95149329 -23.59181481 20.89837149 -22.60009766 19.83959961 C-21.5015588 18.70312627 -20.40258702 17.56707129 -19.30322266 16.43139648 C-17.58359676 14.6372928 -15.86910519 12.83881609 -14.16259766 11.03222656 C-12.50916207 9.28807108 -10.83746771 7.5631466 -9.16259766 5.83959961 C-8.6592691 5.29589218 -8.15594055 4.75218475 -7.63735962 4.19200134 C-5.08737182 1.58895579 -3.66625939 0.45821354 0 0 Z " fill="#FFFDFC" transform="translate(175.24853515625,382.593994140625)"/>
<path d="M0 0 C1.8125 1.25 1.8125 1.25 3 3 C3.32082688 5.88729374 3.37126256 7.44122927 1.74287415 9.89204407 C0.85948616 10.781399 0.85948616 10.781399 -0.04174805 11.6887207 C-0.70631516 12.36904861 -1.37088226 13.04937653 -2.05558777 13.75032043 C-2.78361099 14.4682225 -3.51163422 15.18612457 -4.26171875 15.92578125 C-5.00452591 16.67337204 -5.74733307 17.42096283 -6.51264954 18.19120789 C-8.08618998 19.76815018 -9.66605989 21.33879818 -11.25170898 22.90356445 C-13.67840954 25.30350977 -16.07731938 27.72891973 -18.47460938 30.15820312 C-20.00621188 31.68650159 -21.53936469 33.21324831 -23.07421875 34.73828125 C-23.79212082 35.46630447 -24.51002289 36.1943277 -25.24967957 36.94441223 C-25.93000748 37.60897934 -26.61033539 38.27354645 -27.3112793 38.95825195 C-27.90418259 39.54717728 -28.49708588 40.1361026 -29.10795593 40.74287415 C-31.57022885 42.37887565 -33.09815209 42.3450113 -36 42 C-39.50817596 39.58166468 -42.3777559 36.45591773 -45.375 33.4375 C-46.21933594 32.63763672 -47.06367188 31.83777344 -47.93359375 31.01367188 C-53.94110991 25.03057651 -53.94110991 25.03057651 -54.2265625 20.03515625 C-53 17 -53 17 -50 15 C-46.02190069 15.08174177 -44.32008632 15.73626691 -41.2265625 18.28515625 C-40.36804688 19.20167969 -39.50953125 20.11820312 -38.625 21.0625 C-37.31402344 22.44115234 -37.31402344 22.44115234 -35.9765625 23.84765625 C-35.32429688 24.55792969 -34.67203125 25.26820313 -34 26 C-27.84742994 20.92476095 -22.28327436 15.36466744 -16.6875 9.6875 C-14.90204551 7.87662979 -13.11439841 6.06791792 -11.32421875 4.26171875 C-10.54135498 3.46725342 -9.75849121 2.67278809 -8.9519043 1.85424805 C-5.73145955 -1.20507376 -4.20450922 -1.23058806 0 0 Z " fill="#FFFCFC" transform="translate(178,247)"/>
<path d="M0 0 C2.76123047 0.39794922 2.76123047 0.39794922 4.63623047 1.58544922 C6.17712853 4.06800721 6.09279249 5.50458146 5.76123047 8.39794922 C4.20117188 10.6496582 4.20117188 10.6496582 1.98779297 12.95654297 C0.75270996 14.25954346 0.75270996 14.25954346 -0.50732422 15.58886719 C-1.40870117 16.51586426 -2.31007812 17.44286133 -3.23876953 18.39794922 C-4.16879842 19.37863462 -5.09749012 20.36058971 -6.02490234 21.34375 C-8.44314084 23.8973342 -10.89306608 26.41742309 -13.35986328 28.92407227 C-14.37229272 29.95836098 -15.37839278 30.99887918 -16.37841797 32.04516602 C-17.85135986 33.58508148 -19.34314039 35.10430135 -20.84033203 36.62060547 C-21.70996582 37.51529541 -22.57959961 38.40998535 -23.47558594 39.33178711 C-26.87830742 41.87616172 -29.00211005 42.43181372 -33.23876953 42.39794922 C-35.68579102 40.93847656 -35.68579102 40.93847656 -37.85986328 38.73388672 C-38.64941406 37.94111328 -39.43896484 37.14833984 -40.25244141 36.33154297 C-41.45223633 35.06503906 -41.45223633 35.06503906 -42.67626953 33.77294922 C-43.50320312 32.95181641 -44.33013672 32.13068359 -45.18212891 31.28466797 C-51.15254951 25.16141249 -51.15254951 25.16141249 -51.53979492 21.73242188 C-51.23876953 19.39794922 -51.23876953 19.39794922 -50.11376953 17.58544922 C-47.1572016 15.71295619 -45.70008009 15.74487176 -42.23876953 16.39794922 C-39.31286546 18.47600608 -36.77819706 20.8693508 -34.23876953 23.39794922 C-33.66513672 23.96900391 -33.09150391 24.54005859 -32.50048828 25.12841797 C-32.08412109 25.54736328 -31.66775391 25.96630859 -31.23876953 26.39794922 C-27.24879411 24.81298692 -24.69444627 22.01121019 -21.80908203 18.95263672 C-20.75629066 17.8648219 -19.70288628 16.77760008 -18.64892578 15.69091797 C-17.00091478 13.98094058 -15.35800999 12.2668635 -13.72558594 10.54199219 C-12.14193523 8.87356258 -10.5398826 7.22472042 -8.93408203 5.57763672 C-8.21189987 4.79959183 -8.21189987 4.79959183 -7.47512817 4.00582886 C-4.96987298 1.46352279 -3.58968183 0.44106599 0 0 Z " fill="#FFFCFC" transform="translate(175.23876953125,314.60205078125)"/>
<path d="M0 0 C-0.66182897 4.95877823 -2.70644093 9.14532444 -4.8125 13.625 C-5.15603516 14.388125 -5.49957031 15.15125 -5.85351562 15.9375 C-9.16974726 23.03037816 -9.16974726 23.03037816 -13 25 C-15.9375 25.1875 -15.9375 25.1875 -19 24 C-21.1904555 21.60980691 -22.5512662 18.88445502 -24 16 C-24.55429687 14.90558594 -25.10859375 13.81117188 -25.6796875 12.68359375 C-30.15293582 3.45880746 -30.15293582 3.45880746 -29 0 C-19.05381148 -4.88267436 -10.25188815 -3.27436732 0 0 Z " fill="#555A56" transform="translate(492,477)"/>
<path d="M0 0 C1.94140625 0.34375 1.94140625 0.34375 4.44140625 1.90625 C6.55147464 5.33511114 6.56632148 7.38595351 5.94140625 11.34375 C3.87890625 14.34375 3.87890625 14.34375 0.94140625 16.34375 C-2.56589976 16.34375 -4.90698216 16.21812176 -7.74609375 14.0625 C-9.42118124 11.86893305 -9.46096398 10.58077342 -9.43359375 7.84375 C-9.44132813 7.0703125 -9.4490625 6.296875 -9.45703125 5.5 C-8.48365705 0.23232787 -4.91668825 -0.21731219 0 0 Z " fill="#F8A98F" transform="translate(210.05859375,210.65625)"/>
<path d="M0 0 C1.91015625 0.4453125 1.91015625 0.4453125 4.47265625 2.5078125 C6.3464113 6.33679022 6.03978326 8.37865526 4.91015625 12.4453125 C3.84765625 14.3828125 3.84765625 14.3828125 1.91015625 15.4453125 C-1.75538554 15.98863915 -4.93378578 16.26574074 -8.02734375 14.0703125 C-10.21541246 10.72385448 -10.49059902 8.45286522 -10.08984375 4.4453125 C-7.4838503 0.31915621 -4.62422787 -0.2593025 0 0 Z " fill="#FAAA90" transform="translate(278.08984375,210.5546875)"/>
<path d="M0 0 C0.66 0.33 1.32 0.66 2 1 C-1.63 4.63 -5.26 8.26 -9 12 C-9 7.8407692 -6.75316432 5.85455565 -4 3 C-1.6875 1.125 -1.6875 1.125 0 0 Z " fill="#FB6537" transform="translate(457,150)"/>
</svg>
